<svg xmlns="http://www.w3.org/2000/svg" width="60" height="60" viewBox="0 0 60 60">
  <path id="Icon_awesome-history" data-name="Icon awesome-history" d="M60.562,30.506A30,30,0,0,1,11.735,53.92a2.9,2.9,0,0,1-.222-4.307l1.363-1.363a2.908,2.908,0,0,1,3.858-.24,22.259,22.259,0,1,0-1.421-33.665l6.14,6.14a1.935,1.935,0,0,1-1.369,3.3H2.5A1.935,1.935,0,0,1,.563,21.853V4.267A1.936,1.936,0,0,1,3.867,2.9L9.839,8.871A30,30,0,0,1,60.562,30.506Zm-21.884,9.53,1.188-1.528a2.9,2.9,0,0,0-.509-4.074L34.433,30.6V17.982a2.9,2.9,0,0,0-2.9-2.9H29.595a2.9,2.9,0,0,0-2.9,2.9V34.391L34.6,40.545a2.9,2.9,0,0,0,4.074-.509Z" transform="translate(-0.563 -0.563)" fill="#fff"/>
</svg>
